<?xml version="1.0" standalone="no"?>
<!DOCTYPE svg PUBLIC "-//W3C//DTD SVG 20010904//EN"
 "http://www.w3.org/TR/2001/REC-SVG-20010904/DTD/svg10.dtd">
<svg version="1.0" xmlns="http://www.w3.org/2000/svg"
 width="625.000000pt" height="625.000000pt" viewBox="0 0 625.000000 625.000000"
 preserveAspectRatio="xMidYMid meet">

<g transform="translate(0.000000,625.000000) scale(0.100000,-0.100000)"
fill="#000000" stroke="none">
<path d="M2860 6240 c-607 -59 -1135 -261 -1620 -623 -185 -138 -469 -422
-607 -607 -336 -450 -532 -933 -609 -1495 -25 -182 -25 -598 0 -780 83 -607
324 -1161 699 -1610 78 -92 282 -298 377 -379 461 -393 1013 -637 1635 -722
182 -25 598 -25 780 0 607 83 1161 324 1610 699 92 78 298 282 379 377 338
397 573 875 680 1389 48 227 60 358 60 636 0 194 -5 293 -18 390 -49 363 -141
669 -295 982 -164 333 -328 561 -600 834 -273 272 -501 436 -834 600 -312 153
-621 246 -977 294 -138 19 -527 27 -660 15z m425 -1004 c63 -31 138 -109 168
-174 22 -47 22 -52 27 -812 l5 -765 765 -5 765 -5 57 -28 c214 -105 267 -386
107 -562 -30 -32 -73 -65 -107 -82 l-57 -28 -765 -5 -765 -5 -5 -765 -5 -765
-28 -57 c-105 -213 -386 -267 -562 -107 -32 30 -65 73 -82 107 l-28 57 -5 765
-5 765 -765 5 -765 5 -57 28 c-214 105 -267 386 -107 562 30 32 73 65 107 82
l57 28 765 5 765 5 5 765 c5 760 5 765 27 812 84 182 308 262 488 174z"/>
</g>
</svg>
