<?xml version="1.0" encoding="iso-8859-1"?>
<!-- Generator: Adobe Illustrator 19.0.0, SVG Export Plug-In . SVG Version: 6.00 Build 0)  -->
<svg version="1.1" id="Layer_1" xmlns="http://www.w3.org/2000/svg" xmlns:xlink="http://www.w3.org/1999/xlink" x="0px" y="0px"
	 viewBox="0 0 511.998 511.998" style="enable-background:new 0 0 511.998 511.998;" xml:space="preserve">
<g>
	<g>
		<path d="M494.687,101.031c23.081-23.081,23.081-60.639,0-83.72c-23.081-23.081-60.638-23.08-83.72,0L386.7,41.578l-30.581-30.581
			L10.997,356.118l30.581,30.581l-24.267,24.267c-23.081,23.081-23.081,60.639,0,83.72c11.541,11.541,26.7,17.312,41.859,17.312
			c15.16,0,30.319-5.771,41.861-17.312l24.267-24.267L155.879,501l345.122-345.121l-30.581-30.581L494.687,101.031z M434.581,40.923
			c10.062-10.062,26.432-10.061,36.494,0c10.061,10.062,10.061,26.432,0,36.494l-24.268,24.267l-36.493-36.493L434.581,40.923z
			 M77.417,471.074c-10.063,10.062-26.432,10.061-36.494,0c-10.061-10.062-10.061-26.432,0-36.494l24.268-24.267l36.493,36.493
			L77.417,471.074z M155.879,453.773l-6.966-6.966l-83.721-83.721l-6.966-6.966L356.119,58.225l6.966,6.966l83.721,83.721
			l6.966,6.966L155.879,453.773z"/>
	</g>
</g>
<g>
</g>
<g>
</g>
<g>
</g>
<g>
</g>
<g>
</g>
<g>
</g>
<g>
</g>
<g>
</g>
<g>
</g>
<g>
</g>
<g>
</g>
<g>
</g>
<g>
</g>
<g>
</g>
<g>
</g>
</svg>
