<svg version="1.0" xmlns="http://www.w3.org/2000/svg" width="833.333" height="833.333" viewBox="0 0 625 625"><path d="M286 1c-60.7 5.9-113.5 26.1-162 62.3-18.5 13.8-46.9 42.2-60.7 60.7-33.6 45-53.2 93.3-60.9 149.5-2.5 18.2-2.5 59.8 0 78 8.3 60.7 32.4 116.1 69.9 161 7.8 9.2 28.2 29.8 37.7 37.9 46.1 39.3 101.3 63.7 163.5 72.2 18.2 2.5 59.8 2.5 78 0 60.7-8.3 116.1-32.4 161-69.9 9.2-7.8 29.8-28.2 37.9-37.7 33.8-39.7 57.3-87.5 68-138.9 4.8-22.7 6-35.8 6-63.6 0-19.4-.5-29.3-1.8-39-4.9-36.3-14.1-66.9-29.5-98.2-16.4-33.3-32.8-56.1-60-83.4-27.3-27.2-50.1-43.6-83.4-60C418.5 16.6 387.6 7.3 352 2.5 338.2.6 299.3-.2 286 1zm42.5 100.4c6.3 3.1 13.8 10.9 16.8 17.4 2.2 4.7 2.2 5.2 2.7 81.2l.5 76.5 76.5.5 76.5.5 5.7 2.8c21.4 10.5 26.7 38.6 10.7 56.2-3 3.2-7.3 6.5-10.7 8.2l-5.7 2.8-76.5.5-76.5.5-.5 76.5-.5 76.5-2.8 5.7c-10.5 21.3-38.6 26.7-56.2 10.7-3.2-3-6.5-7.3-8.2-10.7l-2.8-5.7-.5-76.5-.5-76.5-76.5-.5-76.5-.5-5.7-2.8c-21.4-10.5-26.7-38.6-10.7-56.2 3-3.2 7.3-6.5 10.7-8.2l5.7-2.8 76.5-.5 76.5-.5.5-76.5c.5-76 .5-76.5 2.7-81.2 8.4-18.2 30.8-26.2 48.8-17.4z"/></svg>