<svg xmlns="http://www.w3.org/2000/svg" viewBox="0 0 511.998 511.998" style="enable-background:new 0 0 511.998 511.998" xml:space="preserve"><path d="M494.687 101.031c23.081-23.081 23.081-60.639 0-83.72-23.081-23.081-60.638-23.08-83.72 0L386.7 41.578l-30.581-30.581L10.997 356.118l30.581 30.581-24.267 24.267c-23.081 23.081-23.081 60.639 0 83.72 11.541 11.541 26.7 17.312 41.859 17.312 15.16 0 30.319-5.771 41.861-17.312l24.267-24.267L155.879 501l345.122-345.121-30.581-30.581 24.267-24.267zm-60.106-60.108c10.062-10.062 26.432-10.061 36.494 0 10.061 10.062 10.061 26.432 0 36.494l-24.268 24.267-36.493-36.493 24.267-24.268zM77.417 471.074c-10.063 10.062-26.432 10.061-36.494 0-10.061-10.062-10.061-26.432 0-36.494l24.268-24.267 36.493 36.493-24.267 24.268zm78.462-17.301-6.966-6.966-83.721-83.721-6.966-6.966L356.119 58.225l6.966 6.966 83.721 83.721 6.966 6.966-297.893 297.895z"/></svg>